<?xml version="1.0" standalone="no"?>
<!DOCTYPE svg PUBLIC "-//W3C//DTD SVG 20010904//EN"
 "http://www.w3.org/TR/2001/REC-SVG-20010904/DTD/svg10.dtd">
<svg version="1.0" xmlns="http://www.w3.org/2000/svg"
 width="487.000000pt" height="512.000000pt" viewBox="0 0 487.000000 512.000000"
 preserveAspectRatio="xMidYMid meet">

<g transform="translate(0.000000,512.000000) scale(0.100000,-0.100000)"
fill="#fff" stroke="none">
<path d="M2373 5101 c-64 -29 -67 -43 -68 -241 0 -238 10 -259 135 -274 130
-16 181 -49 220 -138 36 -83 37 -172 6 -303 -35 -145 -41 -211 -26 -287 32
-166 147 -280 371 -368 191 -76 263 -165 262 -325 0 -128 -57 -223 -170 -287
-52 -30 -53 -31 -47 -67 17 -101 103 -422 157 -584 l32 -99 34 6 c97 15 311
147 439 270 139 133 227 285 274 473 19 75 23 115 22 268 0 169 -1 185 -27
260 -67 202 -171 318 -522 591 -151 117 -250 211 -265 249 -29 76 -4 179 61
250 55 59 101 82 186 91 132 15 143 36 143 266 0 191 -4 208 -59 245 l-34 23
-541 0 c-509 0 -543 -2 -583 -19z m1055 -307 c12 -8 22 -24 22 -34 0 -10 -10
-26 -22 -34 -20 -14 -82 -16 -483 -16 -350 0 -466 3 -485 13 -33 17 -37 51 -8
71 20 14 78 16 488 16 405 0 468 -2 488 -16z m-142 -919 c204 -77 397 -241
489 -416 97 -184 105 -481 20 -676 -47 -107 -161 -230 -257 -279 -105 -53
-121 -12 -25 64 157 126 230 285 230 502 0 173 -48 327 -139 451 -55 75 -178
181 -301 261 -102 67 -126 92 -106 111 10 10 17 9 89 -18z"/>
<path d="M2050 3369 c-85 -9 -155 -29 -154 -44 1 -5 27 -23 59 -40 70 -36 151
-113 189 -177 33 -57 55 -170 56 -288 1 -141 42 -323 89 -394 l19 -28 47 63
c74 101 250 368 289 440 l36 66 -23 54 c-14 30 -32 75 -41 101 -21 57 -88 135
-153 176 -91 58 -262 88 -413 71z"/>
<path d="M2737 2977 c-9 -7 -48 -66 -88 -132 -156 -261 -326 -503 -497 -709
-109 -131 -338 -381 -405 -441 -28 -26 -88 -82 -132 -124 -213 -202 -485 -422
-768 -620 -115 -81 -132 -102 -105 -129 37 -37 108 3 398 228 526 409 989 894
1365 1434 156 222 285 433 285 463 0 29 -31 47 -53 30z"/>
<path d="M2939 2919 c-13 -13 -19 -28 -16 -42 3 -12 15 -74 27 -137 39 -210
126 -539 206 -779 160 -479 432 -1026 733 -1474 90 -135 92 -137 150 -137 46
0 81 20 81 46 0 5 -23 41 -51 79 -28 39 -102 147 -164 240 -417 628 -724 1348
-870 2040 -14 66 -27 130 -30 142 -3 12 -14 27 -25 33 -16 8 -24 6 -41 -11z"/>
<path d="M2726 2767 c-56 -96 -170 -271 -272 -416 l-45 -64 27 -28 c33 -35
156 -99 244 -129 117 -40 343 -64 379 -41 12 8 9 27 -17 118 -45 156 -57 205
-101 427 -22 110 -44 202 -48 206 -9 7 -85 30 -99 30 -5 0 -36 -46 -68 -103z"/>
<path d="M2310 1860 c-74 -9 -173 -47 -240 -93 -25 -16 -92 -62 -150 -100 -58
-39 -161 -122 -229 -186 -186 -174 -363 -327 -530 -458 -3 -2 8 -33 22 -69 15
-36 30 -93 33 -127 8 -88 20 -120 52 -139 79 -47 988 -197 1502 -248 220 -22
636 -50 736 -50 79 0 97 15 130 103 13 38 38 88 54 112 17 24 30 47 30 51 0 4
-43 85 -97 178 -53 94 -106 190 -119 212 -27 49 -45 53 -199 55 -110 1 -210
11 -222 22 -3 4 -1 94 6 200 15 229 26 261 95 302 l45 26 -20 51 c-28 71 -38
88 -52 88 -44 0 -398 33 -532 50 -216 27 -240 29 -315 20z m375 -151 c215 -26
248 -40 289 -122 l29 -58 -15 -189 c-10 -118 -21 -196 -28 -206 -15 -17 -42
-16 -365 22 -418 50 -729 102 -772 130 -33 21 -31 73 5 105 15 14 91 70 170
125 78 54 166 115 195 136 117 82 205 92 492 57z"/>
<path d="M3405 1714 c14 -32 28 -60 31 -64 3 -3 69 -10 147 -16 127 -10 148
-14 202 -42 73 -37 101 -66 246 -252 133 -172 141 -189 113 -227 l-21 -28
-198 -3 c-151 -2 -196 -5 -192 -15 5 -14 133 -219 158 -255 17 -23 17 -23 77
-8 74 20 210 20 278 2 67 -18 159 -68 208 -113 55 -51 112 -136 132 -196 29
-90 70 -117 145 -97 50 14 105 61 119 105 14 41 -13 402 -36 492 -19 73 -57
142 -103 186 -20 19 -124 95 -231 168 -107 73 -242 167 -300 209 -136 99 -171
121 -250 153 -94 38 -142 45 -358 53 l-193 7 26 -59z"/>
<path d="M422 1645 c-192 -43 -318 -169 -382 -383 -16 -54 -21 -90 -18 -139 4
-60 7 -68 40 -99 45 -41 133 -69 171 -55 14 5 33 22 44 36 61 87 100 129 153
165 95 64 157 83 280 84 121 0 184 -16 273 -69 32 -19 63 -35 70 -35 15 0 219
162 355 282 72 63 100 93 90 98 -7 4 -43 10 -79 13 -36 3 -146 22 -245 42
-289 58 -350 66 -524 70 -121 4 -182 1 -228 -10z"/>
<path d="M625 1157 c-113 -30 -215 -110 -262 -206 -24 -48 -28 -68 -28 -141 0
-73 4 -93 29 -143 34 -69 104 -142 172 -178 114 -62 275 -66 388 -10 79 39
157 120 180 187 27 81 18 230 -16 277 -12 15 -19 12 -80 -33 l-68 -50 6 -44
c9 -62 -30 -145 -84 -181 -86 -56 -211 -42 -285 32 -92 92 -83 224 21 297 48
34 131 45 195 28 35 -10 41 -8 97 30 33 22 63 44 66 50 4 6 -5 21 -21 34 -62
49 -217 75 -310 51z"/>
<path d="M4022 728 c-24 -5 -46 -16 -49 -24 -3 -7 15 -41 39 -74 41 -57 45
-59 88 -60 99 -1 175 -46 211 -125 25 -54 24 -102 -3 -155 -101 -199 -417
-129 -418 92 0 24 -87 169 -110 183 -5 3 -21 -21 -36 -52 -24 -49 -28 -71 -29
-143 0 -74 4 -93 29 -144 39 -79 97 -135 182 -177 67 -33 72 -34 189 -34 111
0 124 2 177 28 80 39 152 107 185 175 23 48 28 70 28 142 0 71 -4 94 -27 142
-79 169 -276 267 -456 226z"/>
</g>
</svg>
