<svg xmlns="http://www.w3.org/2000/svg" viewBox="0 0 64 64" fill="none" stroke="#f59e0b" stroke-width="2" stroke-linecap="round" stroke-linejoin="round" aria-hidden="true">
  <!-- triangular sign -->
  <path d="M32 10L56 52H8L32 10z"/>
  <!-- two cars inside -->
  <path d="M22 36h6l1-2h6l1 2h5v3h-2v1h-2v-1H26v1h-2v-1h-2v-3z"/>
  <circle cx="25" cy="42" r="2"/>
  <circle cx="39" cy="42" r="2"/>
  <path d="M28 36v-1c0-.6.4-1 1-1h4c.6 0 1 .4 1 1v1"/>
  <path d="M34 32h6l1-2h4l1 2h4v3h-2v1h-2v-1h-8v1h-2v-1h-2v-3z"/>
  <circle cx="37" cy="38" r="2"/>
  <circle cx="47" cy="38" r="2"/>
  <path d="M40 32v-1c0-.6.4-1 1-1h2c.6 0 1 .4 1 1v1"/>
</svg>
